<svg id="Camada_1" data-name="Camada 1" xmlns="http://www.w3.org/2000/svg" viewBox="0 0 35.42 35.42"><defs><style>.cls-1{fill:#73d9cd;}.cls-2{fill:#2a0d66;}.cls-3{fill:#f3d322;}.cls-4{fill:#22cdd3;}.cls-5{fill:#fff;}.cls-6{fill:#ee4649;}</style></defs><path class="cls-1" d="M33.21,5.66l-23.14-.1V6.87A.14.14,0,0,1,9.93,7H8.83v16.5H33.21ZM30.9,21.17a.14.14,0,0,1-.14.14h-1.1v1.1a.15.15,0,0,1-.14.15H11.28a.15.15,0,0,1-.15-.15V21.12H10A.15.15,0,0,1,9.89,21V8A.15.15,0,0,1,10,7.86h1.1v-1a.15.15,0,0,1,.15-.15H29.52a.15.15,0,0,1,.14.15v1h1.1A.15.15,0,0,1,30.9,8Z" transform="translate(-2.07 -2.73)"/><path class="cls-1" d="M7.58,30H31.86V25.15H7.48Zm11.33-2.45a.14.14,0,0,1,.14-.14h9.12a.14.14,0,0,1,.14.14v1.35a.14.14,0,0,1-.14.14H19.05a.14.14,0,0,1-.14-.14Zm-10.37,0a.15.15,0,0,1,.15-.14h2.59a.14.14,0,0,1,.14.14v1.35a.14.14,0,0,1-.14.14H8.69a.15.15,0,0,1-.15-.14Z" transform="translate(-2.07 -2.73)"/><rect class="cls-2" x="27.59" y="5.42" width="0.96" height="12.87"/><path class="cls-2" d="M30.76,7.86h-1.1V8a.14.14,0,0,1-.14.14h0V21h0a.14.14,0,0,1,.14.14v.14h1.1a.14.14,0,0,0,.14-.14V8A.15.15,0,0,0,30.76,7.86Zm-.14.29V21h-1V8.15Z" transform="translate(-2.07 -2.73)"/><path class="cls-1" d="M25.53,32.93h-1v1.14H6.23a.14.14,0,0,1-.13.09h-1v1.1a.15.15,0,0,1-.14.15H3.65v1H28v-1a.15.15,0,0,1,.15-.15h1.1V34a.14.14,0,0,1,.14-.14h1V31.57l-4.8,0A12.43,12.43,0,0,1,25.53,32.93Z" transform="translate(-2.07 -2.73)"/><path class="cls-3" d="M24.49,32.93h1a12.43,12.43,0,0,0,.08-1.34l-18,.08v1.11a.14.14,0,0,1,0,.1.15.15,0,0,1-.11,0,8.94,8.94,0,0,0-1.19,0V34s0,0,0,0H24.49Z" transform="translate(-2.07 -2.73)"/><path class="cls-2" d="M35.85,22.36v-18h-1a.14.14,0,0,1-.14-.14V3H11.47V4.23a.14.14,0,0,1-.14.14H8.67v1.1a.14.14,0,0,1-.14.14H7.64v18a.15.15,0,0,1-.15.15H6.29v7.73a.14.14,0,0,1-.14.14H4.94v1.1a.15.15,0,0,1-.14.15H3.6v1.2a.15.15,0,0,1-.15.14H2.35v3.66h27V36.66a.14.14,0,0,1,.14-.14h2.45v-1.1a.15.15,0,0,1,.14-.15H34.5v-1.1a.15.15,0,0,1,.14-.14H37.2V22.5H36A.14.14,0,0,1,35.85,22.36ZM8.54,6.87a.15.15,0,0,1,.15-.15h1.1V5.42a.12.12,0,0,1,0-.1.12.12,0,0,1,.1-.05h0l23.42.11a.14.14,0,0,1,.14.14V23.66a.14.14,0,0,1-.14.14H8.69a.15.15,0,0,1-.15-.14Zm-1.3,18a.15.15,0,0,1,.1,0H32a.15.15,0,0,1,.15.14v5.18a.15.15,0,0,1-.15.15H7.44a.14.14,0,0,1-.14-.14L7.2,25A.12.12,0,0,1,7.24,24.9ZM30.69,34a.14.14,0,0,1-.14.14h-1v1.21a.15.15,0,0,1-.15.14h-1.1v1a.14.14,0,0,1-.14.14H3.5a.14.14,0,0,1-.14-.14V35.26a.14.14,0,0,1,.14-.14H4.81V34A.15.15,0,0,1,5,33.88H6v-1.1a.18.18,0,0,1,0-.12s.13-.12,1.3,0V31.53a.14.14,0,0,1,.14-.14l23.11-.11h0a.12.12,0,0,1,.1,0,.12.12,0,0,1,0,.1Zm5.3-1.4a7.68,7.68,0,0,0-1.37,0l-.08,1.09h-2.8V31.38H33.4V25.06h1.14V23.71H36Z" transform="translate(-2.07 -2.73)"/><path class="cls-2" d="M37.34,22.22h-1.2v-18A.15.15,0,0,0,36,4.08H35V2.88a.15.15,0,0,0-.15-.15H11.33a.15.15,0,0,0-.15.15v1.2H8.53a.15.15,0,0,0-.14.15v1.1h-.9a.14.14,0,0,0-.14.14v18H6.15A.15.15,0,0,0,6,23.6v7.74H4.8a.14.14,0,0,0-.14.14v1.1H3.45a.14.14,0,0,0-.14.14v1.21H2.21a.14.14,0,0,0-.14.14V38a.14.14,0,0,0,.14.14H29.46a.15.15,0,0,0,.15-.14V36.8h2.44a.15.15,0,0,0,.15-.14v-1.1h2.44a.15.15,0,0,0,.15-.14v-1.1h2.55a.15.15,0,0,0,.14-.15V22.36A.14.14,0,0,0,37.34,22.22ZM37.2,34H34.64a.15.15,0,0,0-.14.14v1.1H32.05a.15.15,0,0,0-.14.15v1.1H29.46a.14.14,0,0,0-.14.14v1.21h-27V34.21h1.1a.15.15,0,0,0,.15-.14v-1.2H4.8a.15.15,0,0,0,.14-.15v-1.1H6.15a.14.14,0,0,0,.14-.14V23.75h1.2a.15.15,0,0,0,.15-.15v-18h.89a.14.14,0,0,0,.14-.14V4.37h2.66a.14.14,0,0,0,.14-.14V3H34.71V4.23a.14.14,0,0,0,.14.14h1v18a.14.14,0,0,0,.14.14H37.2Z" transform="translate(-2.07 -2.73)"/><path class="cls-2" d="M8.69,23.8H33.35a.14.14,0,0,0,.14-.14V5.52a.14.14,0,0,0-.14-.14L9.93,5.27h0a.12.12,0,0,0-.1.05.12.12,0,0,0,0,.1v1.3H8.69a.15.15,0,0,0-.15.15V23.66A.15.15,0,0,0,8.69,23.8ZM8.83,7h1.1a.14.14,0,0,0,.14-.14V5.56l23.14.1V23.51H8.83Z" transform="translate(-2.07 -2.73)"/><path class="cls-2" d="M30.55,31.28h0l-23.11.11a.14.14,0,0,0-.14.14v1.09c-1.17-.08-1.25,0-1.3,0a.18.18,0,0,0,0,.12v1.1H5a.15.15,0,0,0-.15.14v1.1H3.5a.14.14,0,0,0-.14.14v1.25a.14.14,0,0,0,.14.14H28.17a.14.14,0,0,0,.14-.14v-1h1.1a.15.15,0,0,0,.15-.14V34.16h1a.14.14,0,0,0,.14-.14V31.43a.12.12,0,0,0,0-.1A.12.12,0,0,0,30.55,31.28Zm-.14,2.6h-1a.14.14,0,0,0-.14.14v1.2h-1.1a.15.15,0,0,0-.15.15v1H3.65v-1H5a.15.15,0,0,0,.14-.15v-1.1h1a.14.14,0,0,0,.13-.09s0,0,0,0V32.88a8.94,8.94,0,0,1,1.19,0,.15.15,0,0,0,.11,0,.14.14,0,0,0,0-.1V31.67l18-.08,4.8,0Z" transform="translate(-2.07 -2.73)"/><path class="cls-2" d="M7.44,30.33H32a.15.15,0,0,0,.15-.15V25a.15.15,0,0,0-.15-.14H7.34a.15.15,0,0,0-.1,0,.12.12,0,0,0,0,.11l.1,5.18A.14.14,0,0,0,7.44,30.33ZM31.86,30H7.58l-.1-4.89H31.86Z" transform="translate(-2.07 -2.73)"/><polygon class="cls-2" points="27.31 18.58 9.35 18.53 9.35 19.53 27.31 19.53 27.31 18.58"/><path class="cls-2" d="M29.52,21h0v.14l-18.21-.05h-.18v1.29a.15.15,0,0,0,.15.15H29.52a.15.15,0,0,0,.14-.15V21.17A.14.14,0,0,0,29.52,21Zm-18.1.24,18,0v1h-18Z" transform="translate(-2.07 -2.73)"/><rect class="cls-2" x="9.35" y="4.28" width="17.95" height="0.85"/><path class="cls-2" d="M11.28,7.86a.15.15,0,0,1,.14.15h18.1v.14h0A.14.14,0,0,0,29.66,8V6.87a.15.15,0,0,0-.14-.15H11.28a.15.15,0,0,0-.15.15v1ZM11.42,7h18v.85h-18Z" transform="translate(-2.07 -2.73)"/><rect class="cls-2" x="17.13" y="25" width="8.83" height="1.06"/><path class="cls-2" d="M19.05,29.08h9.12a.14.14,0,0,0,.14-.14V27.59a.14.14,0,0,0-.14-.14H19.05a.14.14,0,0,0-.14.14v1.35A.14.14,0,0,0,19.05,29.08Zm.14-1.34H28V28.8H19.19Z" transform="translate(-2.07 -2.73)"/><path class="cls-2" d="M12.66,19.57H22.84V17.13A.15.15,0,0,1,23,17h5V9.6H16.5v2.86a.15.15,0,0,1-.15.15H12.66ZM17,10.39a.14.14,0,0,1,.14-.14H27.24a.14.14,0,0,1,.14.14V16.3a.14.14,0,0,1-.14.14H23a.15.15,0,0,1-.15-.14V12.5H17.18a.14.14,0,0,1-.14-.14Zm-3.73,2.9a.14.14,0,0,1,.14-.14h8.6a.15.15,0,0,1,.15.14v5.18a.15.15,0,0,1-.15.15h-8.6a.15.15,0,0,1-.14-.15Z" transform="translate(-2.07 -2.73)"/><path class="cls-2" d="M13.45,18.62h8.6a.15.15,0,0,0,.15-.15V13.29a.15.15,0,0,0-.15-.14h-8.6a.14.14,0,0,0-.14.14v5.18A.15.15,0,0,0,13.45,18.62Zm0-5.33h8.6v5.18h-8.6Z" transform="translate(-2.07 -2.73)"/><path class="cls-2" d="M16.35,12.46H12.52v7.26H23V17.13h5.18V9.46H16.35Zm.15,0V9.6H28V17H23a.15.15,0,0,0-.15.15v2.44H12.66v-7h3.69A.15.15,0,0,0,16.5,12.46Z" transform="translate(-2.07 -2.73)"/><path class="cls-2" d="M17.18,12.5h5.66v3.8a.15.15,0,0,0,.15.14h4.25a.14.14,0,0,0,.14-.14V10.39a.14.14,0,0,0-.14-.14H17.18a.14.14,0,0,0-.14.14v2A.14.14,0,0,0,17.18,12.5Zm0-2.11H27.24V16.3H23V12.36H17.18Z" transform="translate(-2.07 -2.73)"/><polygon class="cls-4" points="20.92 13.56 25.17 13.56 25.17 7.66 15.12 7.66 15.12 9.63 20.92 9.63 20.92 13.56"/><rect class="cls-3" x="11.39" y="10.56" width="8.6" height="5.18"/><path class="cls-5" d="M11.42,8V21a.15.15,0,0,1-.14.15h0l18.21.05V8ZM28.17,9.46v7.67H23v2.59H12.52V12.46h3.83v-3Z" transform="translate(-2.07 -2.73)"/><rect class="cls-2" x="6.76" y="25" width="2.3" height="1.06"/><path class="cls-2" d="M8.69,29.08h2.59a.14.14,0,0,0,.14-.14V27.59a.14.14,0,0,0-.14-.14H8.69a.15.15,0,0,0-.15.14v1.35A.15.15,0,0,0,8.69,29.08Zm.14-1.34h2.3V28.8H8.83Z" transform="translate(-2.07 -2.73)"/><rect class="cls-2" x="8.11" y="5.42" width="0.96" height="12.67"/><path class="cls-2" d="M11.28,21.11a.15.15,0,0,0,.14-.15V8h0a.15.15,0,0,0-.14-.15H10A.15.15,0,0,0,9.89,8V21a.15.15,0,0,0,.14.15h1.25Zm-1.1-13h1V20.82h-1Z" transform="translate(-2.07 -2.73)"/><path class="cls-6" d="M34.54,25.06H33.4v6.32H31.74v2.28h2.8l.08-1.09a7.68,7.68,0,0,1,1.37,0V23.71H34.54Z" transform="translate(-2.07 -2.73)"/></svg>