<svg id="Camada_1" data-name="Camada 1" xmlns="http://www.w3.org/2000/svg" viewBox="0 0 263.16 57.81"><defs><style>.cls-1{fill:#ff0;fill-rule:evenodd;}.cls-2{fill:#000001;}.cls-3{fill:#fff;}</style></defs><path class="cls-1" d="M15.44,40.46a2.25,2.25,0,0,0,.38,1.14h0l6.08,8a4.76,4.76,0,0,0,.91.8,2,2,0,0,0,1,.24H62.34a2,2,0,0,0,1-.24,4.78,4.78,0,0,0,.92-.8l6.07-8h0a1.92,1.92,0,0,0,0-2.29h0l-6.07-8a5.61,5.61,0,0,0-.92-.8,2,2,0,0,0-1-.24H23.85a2,2,0,0,0-1,.24,5.59,5.59,0,0,0-.91.8l-6.08,8h0a2.25,2.25,0,0,0-.38,1.15M38,17.5H26.54A1.79,1.79,0,0,0,25.3,18a1.75,1.75,0,0,0-.52,1.24v5.88a1.75,1.75,0,0,0,.52,1.24,1.79,1.79,0,0,0,1.24.51H38a1.79,1.79,0,0,0,1.24-.51,1.82,1.82,0,0,0,.51-1.08v-6.2A1.75,1.75,0,0,0,38,17.5Zm21.9,0H48.44a1.76,1.76,0,0,0-1.76,1.75v5.88a1.76,1.76,0,0,0,1.76,1.75H59.89a1.74,1.74,0,0,0,1.75-1.75V19.25a1.74,1.74,0,0,0-1.75-1.75Zm-2.07,19a4,4,0,1,1-4,4A4,4,0,0,1,57.82,36.48Zm-29.37,0a4,4,0,1,1-4,4A4,4,0,0,1,28.45,36.48ZM49.22,22.25a1.54,1.54,0,1,1-1.54,1.54A1.53,1.53,0,0,1,49.22,22.25Zm-12.17,0a1.54,1.54,0,1,1-1.54,1.54A1.53,1.53,0,0,1,37.05,22.25Zm34,13.11,1.62,2.07a4.78,4.78,0,0,1,1,2.92v.21a4.76,4.76,0,0,1-1,2.92l-1.62,2.08h0L66.54,51.5l0,0,0,0-.08.09a5.11,5.11,0,0,1-4,1.93H49.25A8.6,8.6,0,0,1,37,53.6H23.85a5.1,5.1,0,0,1-4.05-1.93l-.08-.09,0,0,0,0-4.49-5.94h-.05l-1.62-2.08a4.64,4.64,0,0,1-1-2.92v-.21a4.66,4.66,0,0,1,1-2.92c2.08-2.66,4.11-5.3,6.16-8l0,0,0,0,.08-.08a6.77,6.77,0,0,1,1.84-1.47V25.17c-4.46,0-14-2.87-14-9.08v-.21a2,2,0,0,1,2.08-2l12,.21V5.15c0-.34.51-1.14,1.14-1.14a1.11,1.11,0,0,1,.85.38l.38.44L31.56,14h8c1.2,0,3.09.19,3.7,2.1a3.3,3.3,0,0,1,3.5-2.1h7.93l7.51-9.19.43-.49a1,1,0,0,1,.8-.33,1.14,1.14,0,0,1,1.13,1,.28.28,0,0,1,0,.09v9l12-.2a2,2,0,0,1,2.09,2v.21c0,6.21-9.54,9.07-14,9.07v2.65a7.15,7.15,0,0,1,1.76,1.43l.08.08,0,0,0,0L71,35.36Zm5.41,5.1v.09a7.53,7.53,0,0,1-1.56,4.67l-2.47,3.16h0l-3.79,5-.25.26a7.75,7.75,0,0,1-6.06,2.78h-12a11.42,11.42,0,0,1-14.41,0H23.85a7.72,7.72,0,0,1-6.06-2.78l-.26-.25-.14-.19-3.64-4.83h0l-2.47-3.16A7.47,7.47,0,0,1,9.7,40.55v-.19a7.51,7.51,0,0,1,1.56-4.67q3.11-4,6.13-8l.14-.18A25.9,25.9,0,0,1,13,26.1c-4.2-1.79-8.19-5.05-8.19-10v-.21a4.86,4.86,0,0,1,5-4.84l9.09.15v-6a4.16,4.16,0,0,1,4-4,4,4,0,0,1,3,1.37l.4.47,6.68,8.17h6.62a8,8,0,0,1,3.69.8,7.32,7.32,0,0,1,3.51-.8h6.59L60,3l.44-.52a3.88,3.88,0,0,1,3-1.32A4,4,0,0,1,67.3,4.47a3.11,3.11,0,0,1,.06.44V11.2l9.15-.15a4.86,4.86,0,0,1,5,4.84v.21a8.71,8.71,0,0,1-.72,3.45c-1.84,4.24-7.17,7-12.07,8l3.76,5h0l2.47,3.16a7.57,7.57,0,0,1,1.56,4.67Z" transform="translate(-4.8 -1.18)"/><path class="cls-2" d="M15.44,40.46a2.25,2.25,0,0,0,.38,1.14h0l6.08,8a4.76,4.76,0,0,0,.91.8,2,2,0,0,0,1,.24H62.34a2,2,0,0,0,1-.24,4.78,4.78,0,0,0,.92-.8l6.07-8h0a1.92,1.92,0,0,0,0-2.29h0l-6.07-8a5.61,5.61,0,0,0-.92-.8,2,2,0,0,0-1-.24H23.85a2,2,0,0,0-1,.24,5.59,5.59,0,0,0-.91.8l-6.08,8h0a2.25,2.25,0,0,0-.38,1.15M38,17.5H26.54A1.79,1.79,0,0,0,25.3,18a1.75,1.75,0,0,0-.52,1.24v5.88a1.75,1.75,0,0,0,.52,1.24,1.79,1.79,0,0,0,1.24.51H38a1.79,1.79,0,0,0,1.24-.51,1.82,1.82,0,0,0,.51-1.08v-6.2A1.75,1.75,0,0,0,38,17.5Zm21.9,0H48.44a1.76,1.76,0,0,0-1.76,1.75v5.88a1.76,1.76,0,0,0,1.76,1.75H59.89a1.74,1.74,0,0,0,1.75-1.75V19.25a1.74,1.74,0,0,0-1.75-1.75Zm-2.07,19a4,4,0,1,1-4,4A4,4,0,0,1,57.82,36.48Zm-29.37,0a4,4,0,1,1-4,4A4,4,0,0,1,28.45,36.48ZM49.22,22.25a1.54,1.54,0,1,1-1.54,1.54A1.53,1.53,0,0,1,49.22,22.25Zm-12.17,0a1.54,1.54,0,1,1-1.54,1.54A1.53,1.53,0,0,1,37.05,22.25Zm34,13.11,1.62,2.07a4.78,4.78,0,0,1,1,2.92v.21a4.76,4.76,0,0,1-1,2.92l-1.62,2.08h0L66.54,51.5l0,0,0,0-.08.09a5.11,5.11,0,0,1-4,1.93H49.25A8.6,8.6,0,0,1,37,53.6H23.85a5.1,5.1,0,0,1-4.05-1.93l-.08-.09,0,0,0,0-4.49-5.94h-.05l-1.62-2.08a4.64,4.64,0,0,1-1-2.92v-.21a4.66,4.66,0,0,1,1-2.92c2.08-2.66,4.11-5.3,6.16-8l0,0,0,0,.08-.08a6.77,6.77,0,0,1,1.84-1.47V25.17c-4.46,0-14-2.87-14-9.08v-.21a2,2,0,0,1,2.08-2l12,.21V5.15c0-.34.51-1.14,1.14-1.14a1.11,1.11,0,0,1,.85.38l.38.44L31.56,14h8c1.2,0,3.09.19,3.7,2.1a3.3,3.3,0,0,1,3.5-2.1h7.93l7.51-9.19.43-.49a1,1,0,0,1,.8-.33,1.14,1.14,0,0,1,1.13,1,.28.28,0,0,1,0,.09v9l12-.2a2,2,0,0,1,2.09,2v.21c0,6.21-9.54,9.07-14,9.07v2.65a7.15,7.15,0,0,1,1.76,1.43l.08.08,0,0,0,0L71,35.36Z" transform="translate(-4.8 -1.18)"/><path class="cls-3" d="M222.44,21.94a5.43,5.43,0,0,0-3.45,1.2,8,8,0,0,0-2.36,3.11h11.81a5.58,5.58,0,0,0-2.26-3.18,6.47,6.47,0,0,0-3.74-1.13m7.13,13.59a.93.93,0,0,1,.62-.23.82.82,0,0,1,.67.35l3.32,4.16a1.74,1.74,0,0,1,.36.68.94.94,0,0,1-.44.91,15.74,15.74,0,0,1-5.33,3.23,17.86,17.86,0,0,1-5.64.84,14.88,14.88,0,0,1-6.81-1.66,16.37,16.37,0,0,1-5.51-4.55,15.11,15.11,0,0,1-3-6.43,14.67,14.67,0,0,1-.28-2.66,16.21,16.21,0,0,1,1.72-8,13,13,0,0,1,5.22-5.37,15.55,15.55,0,0,1,7.8-1.92,12.93,12.93,0,0,1,5.5,1.31,14.07,14.07,0,0,1,5,4,15.1,15.1,0,0,1,3,6.71A19.8,19.8,0,0,1,236.2,30a3.79,3.79,0,0,1-.27,1.89,1.8,1.8,0,0,1-1.09.84,7.86,7.86,0,0,1-2.14.22H216.09a7.15,7.15,0,0,0,1.38,2.77,6.8,6.8,0,0,0,2.34,1.86,6.56,6.56,0,0,0,2.91.65,12.32,12.32,0,0,0,2.89-.28,6.64,6.64,0,0,0,1.84-.72,12.09,12.09,0,0,0,1.43-1.12C229.18,35.83,229.41,35.64,229.57,35.53ZM183,30.07a6.64,6.64,0,0,0,.12,1.46,8.06,8.06,0,0,0,1.21,2.88,7.48,7.48,0,0,0,2.35,2.23,6.2,6.2,0,0,0,3.24.86,7.47,7.47,0,0,0,3.88-1,6.47,6.47,0,0,0,2.48-2.68,8.63,8.63,0,0,0,.9-3.78,8.12,8.12,0,0,0-.17-1.68,7.08,7.08,0,0,0-1.27-2.91,6.37,6.37,0,0,0-2.41-2,7.46,7.46,0,0,0-3.29-.72,6.21,6.21,0,0,0-3.67,1.13,8,8,0,0,0-2.48,2.84A7.49,7.49,0,0,0,183,30.07Zm-8-22.57a1,1,0,0,1,1.11-1.06H183c.59,0,.92.24,1,.71a2.39,2.39,0,0,1,0,.35l-.1,8.17h0a1,1,0,0,0,1,1,1,1,0,0,0,.49-.13h0a10.26,10.26,0,0,1,5.78-1.67,14.27,14.27,0,0,1,6.59,1.52,13.37,13.37,0,0,1,4.87,4.17,15.26,15.26,0,0,1,2.6,6.06,16.63,16.63,0,0,1,.33,3.58,16.1,16.1,0,0,1-2.07,7.95,14.47,14.47,0,0,1-12.66,7.37,9.53,9.53,0,0,1-4.09-.88,10.17,10.17,0,0,1-2.31-1.5.91.91,0,0,0-.68-.31.92.92,0,0,0-.83.54h0a6.9,6.9,0,0,1-.5,1,1.21,1.21,0,0,1-1,.66h-5.67a1.37,1.37,0,0,1-.72-.18.88.88,0,0,1-.36-.56s0-.15,0-.31Zm-12.67.07a1.07,1.07,0,0,1,.33-.82,1.24,1.24,0,0,1,.84-.28h6.62a1.19,1.19,0,0,1,.71.21.93.93,0,0,1,.38.59,1.31,1.31,0,0,1,0,.3l-.45,36.31a1.11,1.11,0,0,1-.32.8,1.06,1.06,0,0,1-.8.3h-6.63a1.35,1.35,0,0,1-.75-.2.87.87,0,0,1-.38-.58,2.38,2.38,0,0,1,0-.32ZM149.45,30.12a7.19,7.19,0,0,0-.14-1.58,7.47,7.47,0,0,0-1.3-2.95,7,7,0,0,0-2.43-2.09,6.93,6.93,0,0,0-6.64.18,7,7,0,0,0-2.61,2.63,7.6,7.6,0,0,0-1,3.81,10.14,10.14,0,0,0,.16,1.75,7.25,7.25,0,0,0,1.28,2.93,6.76,6.76,0,0,0,5.47,2.7,6.87,6.87,0,0,0,3.63-1,7.54,7.54,0,0,0,2.61-2.71A7.4,7.4,0,0,0,149.45,30.12Zm8.79,13.81a.94.94,0,0,1-1.06,1h-5.34a1,1,0,0,1-.79-.37,2.51,2.51,0,0,1-.48-.72c-.06-.13-.13-.3-.21-.52a1,1,0,0,0-1.6-.45h0a11.88,11.88,0,0,1-2.48,1.65,9.19,9.19,0,0,1-4.08.9,15,15,0,0,1-6.65-1.56,15.82,15.82,0,0,1-5.42-4.37,15.13,15.13,0,0,1-3-6.45,18,18,0,0,1-.3-3.24,16.12,16.12,0,0,1,1.86-7.78,13.19,13.19,0,0,1,5.32-5.33,16.28,16.28,0,0,1,8-1.92,10.46,10.46,0,0,1,7.4,2.85h0a.92.92,0,0,0,.64.25,1,1,0,0,0,.91-.62h0l.42-1.13a2.72,2.72,0,0,1,.39-.85.89.89,0,0,1,.67-.2h5c.58,0,.92.23,1,.7a1.53,1.53,0,0,1,0,.35ZM116.06,30.1a7.67,7.67,0,0,0-.16-1.62,7.32,7.32,0,0,0-1.32-3,7.05,7.05,0,0,0-5.76-2.84,6.56,6.56,0,0,0-3.61,1,6.66,6.66,0,0,0-2.4,2.72,8.32,8.32,0,0,0-.84,3.74,7.85,7.85,0,0,0,.14,1.83,7,7,0,0,0,1.24,2.83,6.4,6.4,0,0,0,2.32,1.93,6.92,6.92,0,0,0,3.14.69,7.15,7.15,0,0,0,3.6-1,7.29,7.29,0,0,0,2.64-2.65A7.51,7.51,0,0,0,116.06,30.1Zm7.83,10a18.64,18.64,0,0,1-2.17,9.2,12.15,12.15,0,0,1-5.42,5.13A17.25,17.25,0,0,1,108.86,56,20.51,20.51,0,0,1,102.29,55,13.6,13.6,0,0,1,97,51.8a1.07,1.07,0,0,1-.36-.56.54.54,0,0,1,0-.4,3.73,3.73,0,0,1,.32-.56l2.72-3.92a1.22,1.22,0,0,1,1-.6,1.32,1.32,0,0,1,.9.39,7.87,7.87,0,0,0,2.77,1.55,11.92,11.92,0,0,0,3.75.52,8.28,8.28,0,0,0,3.48-.77,6.91,6.91,0,0,0,2.74-2.21,5.42,5.42,0,0,0,1.05-3.33l0-.64a11.63,11.63,0,0,1-3.58,2.54,10.12,10.12,0,0,1-4.17.87,13.59,13.59,0,0,1-6.24-1.48,14.21,14.21,0,0,1-5-4.17,14.71,14.71,0,0,1-2.72-6.09,16.23,16.23,0,0,1-.31-3.38,15.65,15.65,0,0,1,1.94-7.51,14.21,14.21,0,0,1,5.21-5.34,14.46,14.46,0,0,1,7.44-2,10.51,10.51,0,0,1,4.72,1,11,11,0,0,1,2.68,1.82h0a.94.94,0,0,0,.67.27,1,1,0,0,0,.94-.74l.23-.61a3.24,3.24,0,0,1,.49-1.08,1.06,1.06,0,0,1,.85-.29h4.43c.62,0,1,.24,1.06.71a2.53,2.53,0,0,1,0,.39ZM259.2,28.54a7.87,7.87,0,0,0-.11-1.42,4.76,4.76,0,0,0-4.92-4,5.44,5.44,0,0,0-2.78.7,5.14,5.14,0,0,0-1.92,2,5.62,5.62,0,0,0-.72,2.76l-.19,15.1a1.13,1.13,0,0,1-.53.92A1.76,1.76,0,0,1,247,45h-6.26a1,1,0,0,1-1.08-.76,1.77,1.77,0,0,1,0-.34l.34-27.64a1,1,0,0,1,1.15-1.1h4.33a1.6,1.6,0,0,1,1,.39,1.86,1.86,0,0,1,.62,1l.2.81a1,1,0,0,0,1.72.44h0a10.17,10.17,0,0,1,2.69-1.9,11.17,11.17,0,0,1,4.84-1,11.75,11.75,0,0,1,4.31.91,11.48,11.48,0,0,1,4.24,3,10.93,10.93,0,0,1,2.6,5.43,16.62,16.62,0,0,1,.31,3.46l-.2,16.29A1,1,0,0,1,266.68,45h-6.55c-.61,0-1-.25-1.08-.76a2.31,2.31,0,0,1,0-.32Z" transform="translate(-4.8 -1.18)"/></svg>