<?xml version="1.0" encoding="utf-8"?>
<!-- Generator: Adobe Illustrator 25.2.1, SVG Export Plug-In . SVG Version: 6.00 Build 0)  -->
<svg version="1.1" id="Camada_1" xmlns="http://www.w3.org/2000/svg" xmlns:xlink="http://www.w3.org/1999/xlink" x="0px" y="0px"
	 viewBox="0 0 263.16 57.81" style="enable-background:new 0 0 263.16 57.81;" xml:space="preserve">
<style type="text/css">
	.st0{fill-rule:evenodd;clip-rule:evenodd;fill:#FFFFFF;}
	.st1{fill:#000001;}
	.st2{fill:#FFFFFF;}
</style>
<path class="st0" d="M10.64,39.28c0.02,0.41,0.15,0.8,0.38,1.14l0,0l6.08,8c0.27,0.3,0.57,0.57,0.91,0.8c0.31,0.17,0.65,0.25,1,0.24
	h38.53c0.35,0.01,0.69-0.07,1-0.24c0.34-0.23,0.65-0.5,0.92-0.8l6.07-8l0,0c0.51-0.68,0.51-1.61,0-2.29l0,0l-6.07-8
	c-0.28-0.3-0.59-0.57-0.92-0.8c-0.31-0.17-0.65-0.25-1-0.24H19.05c-0.35-0.01-0.69,0.07-1,0.24c-0.33,0.23-0.64,0.5-0.91,0.8
	l-6.08,8l0,0c-0.23,0.34-0.36,0.74-0.38,1.15 M33.2,16.32H21.74c-0.46,0-0.91,0.18-1.24,0.5c-0.33,0.33-0.52,0.77-0.52,1.24v5.88
	c0,0.47,0.19,0.91,0.52,1.24c0.33,0.32,0.78,0.51,1.24,0.51H33.2c0.46,0,0.91-0.19,1.24-0.51c0.29-0.29,0.47-0.67,0.51-1.08v-6.2
	C34.86,17,34.1,16.32,33.2,16.32z M55.1,16.32H43.64c-0.97,0-1.75,0.78-1.76,1.75v5.88c0.01,0.97,0.79,1.75,1.76,1.75h11.45
	c0.96,0.01,1.74-0.77,1.75-1.73c0-0.01,0-0.01,0-0.02v-5.88c0.01-0.96-0.77-1.74-1.73-1.75c-0.01,0-0.01,0-0.02,0H55.1z
	 M53.03,35.32c2.21,0,4,1.79,4,4s-1.79,4-4,4s-4-1.79-4-4c-0.01-2.21,1.77-4.01,3.98-4.02c0,0,0.01,0,0.01,0L53.03,35.32z
	 M23.66,35.32c2.21,0,4,1.79,4,4s-1.79,4-4,4c-2.21,0-4-1.79-4-4c-0.01-2.21,1.77-4.01,3.98-4.02c0,0,0.01,0,0.01,0L23.66,35.32z
	 M44.42,21.07c0.85,0,1.54,0.69,1.54,1.54c0,0.85-0.69,1.54-1.54,1.54c-0.85,0-1.54-0.69-1.54-1.54c-0.01-0.84,0.67-1.53,1.52-1.54
	C44.41,21.07,44.41,21.07,44.42,21.07z M32.25,21.07c0.85,0,1.54,0.69,1.54,1.54c0,0.85-0.69,1.54-1.54,1.54
	c-0.85,0-1.54-0.69-1.54-1.54c-0.01-0.84,0.67-1.53,1.52-1.54C32.24,21.07,32.24,21.07,32.25,21.07z M66.25,34.18l1.62,2.07
	c0.65,0.84,1,1.86,1,2.92v0.21c0,1.06-0.35,2.08-1,2.92l-1.62,2.08l0,0l-4.51,5.94l0,0l0,0l-0.08,0.09c-0.97,1.22-2.44,1.93-4,1.93
	H44.45c-3.31,3.4-8.76,3.48-12.16,0.17c-0.03-0.03-0.06-0.06-0.09-0.09H19.05c-1.58,0.02-3.07-0.7-4.05-1.93l-0.08-0.09l0,0l0,0
	l-4.49-5.94h-0.05l-1.62-2.08c-0.66-0.83-1.01-1.86-1-2.92v-0.21c-0.01-1.06,0.34-2.09,1-2.92c2.08-2.66,4.11-5.3,6.16-8l0,0l0,0
	L15,28.25c0.52-0.59,1.15-1.09,1.84-1.47v-2.79c-4.46,0-14-2.87-14-9.08V14.7c0-1.1,0.89-2,2-2c0.03,0,0.05,0,0.08,0l12,0.21V3.97
	c0-0.34,0.51-1.14,1.14-1.14c0.33,0,0.64,0.13,0.85,0.38l0.38,0.44l7.47,9.17h8c1.2,0,3.09,0.19,3.7,2.1
	c0.54-1.42,1.99-2.29,3.5-2.1h7.93l7.51-9.19l0.43-0.49c0.2-0.23,0.5-0.35,0.8-0.33c0.57,0,1.06,0.43,1.13,1c0,0.03,0,0.06,0,0.09v9
	l12-0.2c1.1-0.05,2.04,0.8,2.09,1.91c0,0.03,0,0.06,0,0.09v0.21c0,6.21-9.54,9.07-14,9.07v2.65c0.66,0.38,1.25,0.86,1.76,1.43
	l0.08,0.08l0,0l0,0l4.51,6.04H66.25z M71.66,39.28v0.09c0.02,1.69-0.53,3.33-1.56,4.67l-2.47,3.16l0,0l-3.79,5l-0.25,0.26
	c-1.5,1.79-3.72,2.81-6.06,2.78h-12c-4.2,3.41-10.21,3.41-14.41,0H19.05c-2.34,0.04-4.56-0.98-6.06-2.78l-0.26-0.25l-0.14-0.19
	l-3.64-4.83l0,0l-2.47-3.16c-1.04-1.33-1.59-2.97-1.58-4.66v-0.19c-0.02-1.69,0.53-3.33,1.56-4.67c2.07-2.67,4.12-5.33,6.13-8
	l0.14-0.18c-1.55-0.33-3.07-0.8-4.53-1.41c-4.2-1.79-8.19-5.05-8.19-10v-0.21c0.01-2.68,2.19-4.85,4.88-4.84c0.04,0,0.08,0,0.12,0
	l9.09,0.15v-6c0.08-2.17,1.83-3.92,4-4c1.15,0,2.24,0.5,3,1.37l0.4,0.47l6.68,8.17h6.62c1.28-0.03,2.54,0.24,3.69,0.8
	c1.09-0.55,2.29-0.83,3.51-0.8h6.59l6.61-8.21l0.44-0.52c0.76-0.86,1.85-1.34,3-1.32c1.91,0.04,3.53,1.43,3.86,3.31
	c0.03,0.15,0.05,0.29,0.06,0.44v6.29l9.15-0.15c2.68-0.08,4.92,2.03,5,4.72c0,0.04,0,0.08,0,0.12v0.21c0,1.19-0.25,2.36-0.72,3.45
	c-1.84,4.24-7.17,7-12.07,8l3.76,5l0,0l2.47,3.16c1.03,1.34,1.57,2.98,1.56,4.67L71.66,39.28z"/>
<path class="st1" d="M10.64,39.28c0.02,0.41,0.15,0.8,0.38,1.14l0,0l6.08,8c0.27,0.3,0.57,0.57,0.91,0.8c0.31,0.17,0.65,0.25,1,0.24
	h38.53c0.35,0.01,0.69-0.07,1-0.24c0.34-0.23,0.65-0.5,0.92-0.8l6.07-8l0,0c0.51-0.68,0.51-1.61,0-2.29l0,0l-6.07-8
	c-0.28-0.3-0.59-0.57-0.92-0.8c-0.31-0.17-0.65-0.25-1-0.24H19.05c-0.35-0.01-0.69,0.07-1,0.24c-0.33,0.23-0.64,0.5-0.91,0.8
	l-6.08,8l0,0c-0.23,0.34-0.36,0.74-0.38,1.15 M33.2,16.32H21.74c-0.46,0-0.91,0.18-1.24,0.5c-0.33,0.33-0.52,0.77-0.52,1.24v5.88
	c0,0.47,0.19,0.91,0.52,1.24c0.33,0.32,0.78,0.51,1.24,0.51H33.2c0.46,0,0.91-0.19,1.24-0.51c0.29-0.29,0.47-0.67,0.51-1.08v-6.2
	C34.86,17,34.1,16.32,33.2,16.32z M55.1,16.32H43.64c-0.97,0-1.75,0.78-1.76,1.75v5.88c0.01,0.97,0.79,1.75,1.76,1.75h11.45
	c0.96,0.01,1.74-0.77,1.75-1.73c0-0.01,0-0.01,0-0.02v-5.88c0.01-0.96-0.77-1.74-1.73-1.75c-0.01,0-0.01,0-0.02,0H55.1z
	 M53.03,35.32c2.21,0,4,1.79,4,4s-1.79,4-4,4s-4-1.79-4-4c-0.01-2.21,1.77-4.01,3.98-4.02c0,0,0.01,0,0.01,0L53.03,35.32z
	 M23.66,35.32c2.21,0,4,1.79,4,4s-1.79,4-4,4c-2.21,0-4-1.79-4-4c-0.01-2.21,1.77-4.01,3.98-4.02c0,0,0.01,0,0.01,0L23.66,35.32z
	 M44.42,21.07c0.85,0,1.54,0.69,1.54,1.54c0,0.85-0.69,1.54-1.54,1.54c-0.85,0-1.54-0.69-1.54-1.54c-0.01-0.84,0.67-1.53,1.52-1.54
	C44.41,21.07,44.41,21.07,44.42,21.07z M32.25,21.07c0.85,0,1.54,0.69,1.54,1.54c0,0.85-0.69,1.54-1.54,1.54
	c-0.85,0-1.54-0.69-1.54-1.54c-0.01-0.84,0.67-1.53,1.52-1.54C32.24,21.07,32.24,21.07,32.25,21.07z M66.25,34.18l1.62,2.07
	c0.65,0.84,1,1.86,1,2.92v0.21c0,1.06-0.35,2.08-1,2.92l-1.62,2.08l0,0l-4.51,5.94l0,0l0,0l-0.08,0.09c-0.97,1.22-2.44,1.93-4,1.93
	H44.45c-3.31,3.4-8.76,3.48-12.16,0.17c-0.03-0.03-0.06-0.06-0.09-0.09H19.05c-1.58,0.02-3.07-0.7-4.05-1.93l-0.08-0.09l0,0l0,0
	l-4.49-5.94h-0.05l-1.62-2.08c-0.66-0.83-1.01-1.86-1-2.92v-0.21c-0.01-1.06,0.34-2.09,1-2.92c2.08-2.66,4.11-5.3,6.16-8l0,0l0,0
	L15,28.25c0.52-0.59,1.15-1.09,1.84-1.47v-2.79c-4.46,0-14-2.87-14-9.08V14.7c0-1.1,0.89-2,2-2c0.03,0,0.05,0,0.08,0l12,0.21V3.97
	c0-0.34,0.51-1.14,1.14-1.14c0.33,0,0.64,0.13,0.85,0.38l0.38,0.44l7.47,9.17h8c1.2,0,3.09,0.19,3.7,2.1
	c0.54-1.42,1.99-2.29,3.5-2.1h7.93l7.51-9.19l0.43-0.49c0.2-0.23,0.5-0.35,0.8-0.33c0.57,0,1.06,0.43,1.13,1c0,0.03,0,0.06,0,0.09v9
	l12-0.2c1.1-0.05,2.04,0.8,2.09,1.91c0,0.03,0,0.06,0,0.09v0.21c0,6.21-9.54,9.07-14,9.07v2.65c0.66,0.38,1.25,0.86,1.76,1.43
	l0.08,0.08l0,0l0,0l4.51,6.04H66.25z"/>
<path class="st2" d="M217.64,20.76c-1.25-0.01-2.47,0.41-3.45,1.2c-1.03,0.83-1.84,1.89-2.36,3.11h11.81
	c-0.35-1.3-1.15-2.43-2.26-3.18C220.28,21.14,218.97,20.74,217.64,20.76 M224.77,34.35c0.17-0.15,0.39-0.23,0.62-0.23
	c0.27,0,0.52,0.13,0.67,0.35l3.32,4.16c0.17,0.2,0.29,0.43,0.36,0.68c0.04,0.36-0.13,0.72-0.44,0.91c-1.54,1.42-3.36,2.52-5.33,3.23
	c-1.82,0.58-3.73,0.86-5.64,0.84c-2.37,0-4.7-0.57-6.81-1.66c-2.15-1.09-4.03-2.65-5.51-4.55c-1.5-1.87-2.52-4.08-3-6.43
	c-0.17-0.88-0.27-1.77-0.28-2.66c-0.12-2.77,0.47-5.52,1.72-8c1.18-2.26,2.99-4.13,5.22-5.37c2.39-1.31,5.08-1.97,7.8-1.92
	c1.91,0.03,3.79,0.47,5.5,1.31c1.95,0.93,3.66,2.3,5,4c1.54,1.96,2.57,4.26,3,6.71c0.22,1.02,0.37,2.06,0.43,3.1
	c0.07,0.64-0.02,1.29-0.27,1.89c-0.24,0.41-0.63,0.72-1.09,0.84c-0.7,0.17-1.42,0.25-2.14,0.22h-16.61
	c0.25,1.01,0.72,1.96,1.38,2.77c0.63,0.79,1.43,1.42,2.34,1.86c0.91,0.44,1.9,0.66,2.91,0.65c0.97,0.02,1.94-0.07,2.89-0.28
	c0.65-0.15,1.27-0.39,1.84-0.72c0.5-0.34,0.98-0.71,1.43-1.12C224.38,34.65,224.61,34.46,224.77,34.35z M178.2,28.89
	c-0.01,0.49,0.03,0.98,0.12,1.46c0.21,1.03,0.62,2.01,1.21,2.88c0.61,0.91,1.41,1.67,2.35,2.23c0.98,0.58,2.1,0.88,3.24,0.86
	c1.36,0.03,2.7-0.32,3.88-1c1.07-0.64,1.93-1.57,2.48-2.68c0.58-1.18,0.89-2.47,0.9-3.78c0-0.56-0.06-1.13-0.17-1.68
	c-0.2-1.05-0.63-2.05-1.27-2.91c-0.62-0.86-1.45-1.54-2.41-2c-1.03-0.49-2.15-0.73-3.29-0.72c-1.31-0.02-2.6,0.38-3.67,1.13
	c-1.04,0.74-1.89,1.71-2.48,2.84C178.53,26.56,178.23,27.71,178.2,28.89z M170.2,6.32c-0.04-0.55,0.38-1.03,0.93-1.06
	c0.06,0,0.12,0,0.18,0h6.89c0.59,0,0.92,0.24,1,0.71c0.01,0.12,0.01,0.23,0,0.35l-0.1,8.17l0,0c0,0.55,0.45,1,1,1
	c0.17,0,0.34-0.05,0.49-0.13l0,0c1.72-1.12,3.73-1.7,5.78-1.67c2.29-0.03,4.55,0.49,6.59,1.52c1.94,0.97,3.61,2.41,4.87,4.17
	c1.3,1.81,2.19,3.87,2.6,6.06c0.24,1.18,0.35,2.38,0.33,3.58c0.01,2.78-0.7,5.52-2.07,7.95c-2.57,4.57-7.42,7.39-12.66,7.37
	c-1.41,0.01-2.81-0.29-4.09-0.88c-0.83-0.39-1.61-0.9-2.31-1.5c-0.17-0.2-0.42-0.31-0.68-0.31c-0.36,0-0.68,0.21-0.83,0.54l0,0
	c-0.14,0.35-0.31,0.68-0.5,1c-0.19,0.38-0.57,0.63-1,0.66h-5.67c-0.25,0.01-0.5-0.05-0.72-0.18c-0.19-0.13-0.32-0.33-0.36-0.56
	c0,0,0-0.15,0-0.31L170.2,6.32z M157.53,6.39c-0.01-0.31,0.11-0.61,0.33-0.82c0.24-0.19,0.54-0.29,0.84-0.28h6.62
	c0.25-0.01,0.5,0.07,0.71,0.21c0.2,0.14,0.34,0.35,0.38,0.59c0.01,0.1,0.01,0.2,0,0.3l-0.45,36.31c0.01,0.3-0.11,0.59-0.32,0.8
	c-0.21,0.21-0.5,0.32-0.8,0.3h-6.63c-0.26,0.01-0.52-0.06-0.75-0.2c-0.2-0.13-0.34-0.34-0.38-0.58c-0.01-0.11-0.01-0.21,0-0.32
	L157.53,6.39z M144.65,28.94c0.01-0.53-0.04-1.06-0.14-1.58c-0.21-1.07-0.66-2.07-1.3-2.95c-0.64-0.88-1.47-1.59-2.43-2.09
	c-2.1-1.07-4.6-1.01-6.64,0.18c-1.09,0.63-1.99,1.53-2.61,2.63c-0.66,1.16-1.01,2.47-1,3.81c0,0.59,0.06,1.17,0.16,1.75
	c0.2,1.06,0.64,2.06,1.28,2.93c1.29,1.72,3.32,2.72,5.47,2.7c1.28,0.01,2.54-0.34,3.63-1c1.09-0.67,1.98-1.6,2.61-2.71
	C144.32,31.49,144.65,30.23,144.65,28.94z M153.44,42.75c0.04,0.52-0.35,0.97-0.87,1.01c-0.06,0-0.13,0-0.19-0.01h-5.34
	c-0.31,0-0.6-0.13-0.79-0.37c-0.2-0.21-0.36-0.45-0.48-0.72c-0.06-0.13-0.13-0.3-0.21-0.52c-0.17-0.52-0.74-0.81-1.26-0.64
	c-0.12,0.04-0.24,0.11-0.34,0.19l0,0c-0.75,0.65-1.59,1.21-2.48,1.65c-1.27,0.61-2.67,0.92-4.08,0.9c-2.31,0-4.58-0.54-6.65-1.56
	c-2.11-1.04-3.96-2.53-5.42-4.37c-1.5-1.88-2.53-4.09-3-6.45c-0.2-1.07-0.3-2.15-0.3-3.24c-0.04-2.71,0.6-5.38,1.86-7.78
	c1.22-2.26,3.07-4.11,5.32-5.33c2.46-1.31,5.21-1.98,8-1.92c2.75-0.06,5.4,0.97,7.4,2.85l0,0c0.17,0.16,0.4,0.25,0.64,0.25
	c0.4-0.01,0.76-0.25,0.91-0.62l0,0l0.42-1.13c0.08-0.3,0.21-0.59,0.39-0.85c0.19-0.16,0.43-0.23,0.67-0.2h5c0.58,0,0.92,0.23,1,0.7
	c0.01,0.12,0.01,0.23,0,0.35L153.44,42.75z M111.26,28.92c0-0.54-0.05-1.09-0.16-1.62c-0.21-1.09-0.66-2.11-1.32-3
	c-1.35-1.82-3.5-2.87-5.76-2.84c-1.27-0.02-2.53,0.32-3.61,1c-1.04,0.67-1.87,1.61-2.4,2.72c-0.57,1.16-0.85,2.44-0.84,3.74
	c-0.03,0.61,0.02,1.23,0.14,1.83c0.2,1.02,0.62,1.99,1.24,2.83c0.61,0.82,1.4,1.48,2.32,1.93c0.98,0.47,2.05,0.71,3.14,0.69
	c1.27-0.01,2.51-0.35,3.6-1c1.1-0.64,2.01-1.55,2.64-2.65C110.89,31.45,111.24,30.2,111.26,28.92z M119.09,38.92
	c0.08,3.2-0.67,6.37-2.17,9.2c-1.22,2.24-3.12,4.03-5.42,5.13c-2.33,1.07-4.87,1.61-7.44,1.57c-2.23,0.03-4.45-0.31-6.57-1
	c-1.99-0.65-3.8-1.74-5.29-3.2c-0.18-0.14-0.3-0.34-0.36-0.56c-0.05-0.13-0.05-0.27,0-0.4c0.09-0.2,0.2-0.38,0.32-0.56l2.72-3.92
	c0.21-0.36,0.59-0.58,1-0.6c0.34,0.01,0.66,0.15,0.9,0.39c0.81,0.7,1.75,1.23,2.77,1.55c1.21,0.37,2.48,0.55,3.75,0.52
	c1.2,0,2.39-0.26,3.48-0.77c1.09-0.49,2.03-1.25,2.74-2.21c0.71-0.96,1.08-2.13,1.05-3.33v-0.64c-1.02,1.07-2.24,1.93-3.58,2.54
	c-1.31,0.58-2.73,0.88-4.17,0.87c-2.17,0.01-4.31-0.5-6.24-1.48c-1.97-0.98-3.68-2.41-5-4.17c-1.36-1.79-2.29-3.88-2.72-6.09
	c-0.22-1.11-0.33-2.25-0.31-3.38c0.01-2.63,0.67-5.21,1.94-7.51c1.23-2.21,3.03-4.06,5.21-5.34c2.25-1.33,4.82-2.02,7.44-2
	c1.63-0.04,3.25,0.31,4.72,1c0.98,0.47,1.88,1.08,2.68,1.82l0,0c0.18,0.18,0.42,0.27,0.67,0.27c0.44-0.01,0.83-0.31,0.94-0.74
	l0.23-0.61c0.1-0.39,0.26-0.75,0.49-1.08c0.23-0.22,0.54-0.32,0.85-0.29h4.43c0.62,0,1,0.24,1.06,0.71c0.01,0.13,0.01,0.26,0,0.39
	L119.09,38.92z M254.4,27.36c0.01-0.48-0.03-0.95-0.11-1.42c-0.38-2.39-2.5-4.11-4.92-4c-0.97-0.02-1.93,0.22-2.78,0.7
	c-0.81,0.48-1.48,1.17-1.92,2c-0.47,0.84-0.72,1.79-0.72,2.76l-0.19,15.1c-0.01,0.38-0.21,0.72-0.53,0.92
	c-0.29,0.24-0.65,0.38-1.03,0.4h-6.26c-0.5,0.05-0.96-0.27-1.08-0.76c-0.01-0.11-0.01-0.23,0-0.34l0.34-27.64
	c-0.06-0.55,0.33-1.04,0.88-1.11c0.09-0.01,0.18-0.01,0.27,0.01h4.33c0.37,0.01,0.72,0.15,1,0.39c0.31,0.26,0.53,0.61,0.62,1
	l0.2,0.81c0.12,0.54,0.66,0.87,1.2,0.75c0.2-0.05,0.38-0.15,0.52-0.31l0,0c0.79-0.78,1.7-1.42,2.69-1.9c1.52-0.69,3.17-1.03,4.84-1
	c1.48,0.03,2.94,0.34,4.31,0.91c1.62,0.66,3.07,1.69,4.24,3c1.36,1.53,2.26,3.41,2.6,5.43c0.22,1.14,0.33,2.3,0.31,3.46l-0.2,16.29
	c0.01,0.55-0.43,1.01-0.98,1.02c-0.05,0-0.1,0-0.15-0.01h-6.55c-0.61,0-1-0.25-1.08-0.76c-0.01-0.11-0.01-0.21,0-0.32L254.4,27.36z"
	/>
</svg>
