<?xml version="1.0" encoding="utf-8"?>
<!-- Generator: Adobe Illustrator 25.2.1, SVG Export Plug-In . SVG Version: 6.00 Build 0)  -->
<svg version="1.1" id="Camada_1" xmlns="http://www.w3.org/2000/svg" xmlns:xlink="http://www.w3.org/1999/xlink" x="0px" y="0px"
	 viewBox="0 0 160 116" style="enable-background:new 0 0 160 116;" xml:space="preserve">
<style type="text/css">
	.st0{fill:#FFFFFF;}
	.st1{fill-rule:evenodd;clip-rule:evenodd;fill:#FFFFFF;}
</style>
<path class="st0" d="M133.88,83.76c0-0.39-0.03-0.72-0.08-0.97c-0.16-0.82-0.54-1.49-1.14-1.99c-0.59-0.5-1.33-0.75-2.24-0.75
	c-0.72,0-1.35,0.16-1.91,0.48c-0.56,0.33-1,0.77-1.32,1.34c-0.32,0.57-0.49,1.2-0.49,1.89l-0.13,10.36c0,0.24-0.12,0.44-0.36,0.64
	c-0.25,0.19-0.49,0.28-0.74,0.28h-4.3c-0.42,0-0.67-0.17-0.74-0.52c-0.02-0.1-0.03-0.18-0.03-0.24l0.24-18.97
	c0.02-0.5,0.28-0.75,0.79-0.75h2.97c0.26,0,0.49,0.09,0.71,0.27c0.21,0.18,0.36,0.4,0.43,0.65l0.13,0.56
	c0.06,0.31,0.33,0.55,0.66,0.55c0.21,0,0.4-0.1,0.52-0.25l0.01,0c0.58-0.56,1.19-0.99,1.85-1.3c1-0.48,2.1-0.71,3.32-0.71
	c0.91,0,1.9,0.21,2.96,0.63c1.06,0.42,2.03,1.11,2.91,2.07c0.88,0.96,1.48,2.2,1.78,3.73c0.15,0.74,0.22,1.53,0.21,2.38l-0.14,11.18
	c0,0.49-0.25,0.74-0.74,0.74h-4.49c-0.42,0-0.67-0.17-0.74-0.52c-0.02-0.09-0.03-0.16-0.03-0.22L133.88,83.76z"/>
<path class="st0" d="M108.64,79.23c-0.88,0-1.67,0.27-2.37,0.82c-0.7,0.56-1.23,1.26-1.62,2.13h8.11c-0.28-0.94-0.79-1.66-1.56-2.18
	C110.45,79.48,109.59,79.23,108.64,79.23 M113.54,88.56c0.12-0.1,0.26-0.16,0.42-0.16c0.19,0,0.34,0.08,0.46,0.24l2.28,2.86
	c0.13,0.17,0.22,0.33,0.24,0.47c0.04,0.21-0.06,0.42-0.3,0.62c-1.27,1.1-2.49,1.84-3.66,2.22c-1.17,0.38-2.45,0.57-3.87,0.57
	c-1.63,0-3.18-0.38-4.67-1.14c-1.49-0.76-2.75-1.8-3.79-3.12c-1.04-1.32-1.71-2.79-2.04-4.42c-0.13-0.63-0.19-1.24-0.19-1.82
	c-0.05-2.08,0.35-3.91,1.18-5.49c0.84-1.58,2.03-2.82,3.58-3.69c1.55-0.88,3.34-1.32,5.35-1.32c1.23,0,2.48,0.3,3.78,0.9
	c1.29,0.59,2.44,1.51,3.45,2.76c1.01,1.25,1.7,2.78,2.07,4.61c0.14,0.69,0.23,1.4,0.26,2.11c0.02,0.58-0.04,1.01-0.19,1.29
	c-0.16,0.28-0.41,0.48-0.75,0.58c-0.34,0.1-0.83,0.15-1.47,0.15h-11.4c0.19,0.73,0.5,1.36,0.95,1.9c0.44,0.55,0.98,0.97,1.6,1.27
	c0.62,0.3,1.29,0.45,2,0.45c0.79,0,1.45-0.06,1.98-0.2c0.53-0.13,0.95-0.3,1.26-0.49c0.3-0.2,0.63-0.45,0.98-0.77
	C113.27,88.76,113.43,88.63,113.54,88.56z"/>
<path class="st0" d="M81.59,84.81c-0.01,0.37,0.02,0.71,0.08,1.01c0.14,0.69,0.41,1.35,0.83,1.97c0.42,0.62,0.95,1.13,1.61,1.53
	c0.66,0.4,1.4,0.59,2.23,0.59c1.04,0,1.92-0.22,2.66-0.67c0.74-0.45,1.31-1.06,1.7-1.84c0.39-0.77,0.6-1.64,0.62-2.6
	c0-0.37-0.03-0.76-0.11-1.15c-0.15-0.75-0.44-1.41-0.87-2c-0.43-0.58-0.98-1.04-1.65-1.37c-0.67-0.33-1.43-0.49-2.26-0.49
	c-0.95,0-1.79,0.26-2.52,0.78c-0.74,0.52-1.3,1.17-1.7,1.95C81.8,83.3,81.6,84.06,81.59,84.81 M76.11,69.31
	c0.02-0.48,0.27-0.72,0.76-0.72h4.67c0.4,0,0.63,0.16,0.7,0.49c0.01,0.04,0.01,0.12,0.01,0.24l-0.07,5.61l0,0
	c0.01,0.37,0.3,0.66,0.67,0.66c0.12,0,0.24-0.03,0.33-0.09l0,0c1.16-0.76,2.48-1.14,3.97-1.14c1.66,0,3.17,0.35,4.53,1.04
	c1.35,0.69,2.47,1.65,3.35,2.87c0.88,1.22,1.47,2.61,1.78,4.16c0.16,0.81,0.24,1.63,0.22,2.46c-0.03,2.04-0.5,3.86-1.42,5.46
	c-0.92,1.6-2.15,2.85-3.68,3.73c-1.53,0.89-3.2,1.33-5.01,1.33c-1.02,0-1.95-0.2-2.81-0.6c-0.57-0.27-1.1-0.61-1.59-1.03
	c-0.11-0.13-0.28-0.21-0.46-0.21c-0.25,0-0.47,0.15-0.57,0.37l0,0c-0.1,0.25-0.22,0.47-0.34,0.67c-0.19,0.3-0.43,0.45-0.71,0.45
	h-3.89c-0.2,0-0.37-0.04-0.49-0.12c-0.13-0.09-0.21-0.21-0.25-0.38c-0.01-0.03-0.01-0.11-0.01-0.21L76.11,69.31z"/>
<path class="st0" d="M67.41,69.36c0.01-0.25,0.08-0.43,0.23-0.56c0.15-0.13,0.34-0.19,0.57-0.19h4.55c0.19,0,0.35,0.05,0.49,0.15
	c0.14,0.1,0.22,0.24,0.26,0.4c0.01,0.05,0.01,0.11,0.01,0.2l-0.31,24.93c-0.01,0.24-0.08,0.42-0.22,0.55
	c-0.13,0.13-0.32,0.2-0.55,0.2h-4.55c-0.21,0-0.38-0.04-0.52-0.13c-0.14-0.09-0.22-0.22-0.26-0.4c-0.01-0.03-0.01-0.11-0.01-0.22
	L67.41,69.36z"/>
<path class="st0" d="M58.54,84.84c0.01-0.35-0.02-0.71-0.1-1.09c-0.15-0.75-0.45-1.42-0.89-2.02c-0.44-0.6-1-1.08-1.67-1.43
	c-0.66-0.35-1.39-0.52-2.17-0.52c-0.85,0-1.64,0.21-2.39,0.64c-0.74,0.43-1.34,1.03-1.79,1.81c-0.46,0.77-0.68,1.65-0.69,2.62
	c0,0.44,0.04,0.85,0.11,1.2c0.15,0.75,0.45,1.42,0.88,2.01c0.44,0.58,0.98,1.03,1.63,1.36c0.65,0.33,1.36,0.5,2.13,0.5
	c0.9,0,1.73-0.24,2.49-0.7c0.75-0.47,1.35-1.08,1.79-1.86C58.31,86.58,58.53,85.75,58.54,84.84 M64.57,94.32
	c-0.01,0.48-0.25,0.72-0.73,0.72h-3.66c-0.21,0-0.4-0.09-0.54-0.25c-0.15-0.17-0.26-0.33-0.33-0.49c-0.04-0.09-0.09-0.21-0.14-0.36
	c-0.08-0.28-0.34-0.48-0.64-0.48c-0.17,0-0.33,0.07-0.45,0.17l0,0c-0.56,0.47-1.12,0.85-1.7,1.13c-0.83,0.41-1.77,0.62-2.8,0.62
	c-1.58,0-3.11-0.36-4.56-1.07c-1.46-0.72-2.7-1.72-3.72-3c-1.02-1.29-1.7-2.77-2.03-4.42c-0.14-0.68-0.2-1.42-0.21-2.23
	c0-2,0.43-3.77,1.28-5.34c0.85-1.57,2.07-2.79,3.65-3.66c1.58-0.88,3.42-1.32,5.53-1.32c1.99,0,3.68,0.65,5.07,1.95l0,0l0.01,0.01
	l0,0l0.01,0.01l0,0c0.12,0.1,0.27,0.17,0.44,0.17c0.28,0,0.53-0.18,0.62-0.43l0,0l0.29-0.78c0.1-0.29,0.19-0.48,0.27-0.58
	c0.08-0.09,0.23-0.14,0.45-0.14h3.41c0.4,0,0.63,0.16,0.7,0.48c0.01,0.05,0.01,0.12,0.02,0.24L64.57,94.32z"/>
<path class="st0" d="M35.62,84.83c0.01-0.36-0.03-0.73-0.1-1.11c-0.15-0.75-0.45-1.44-0.91-2.04c-0.46-0.61-1.03-1.09-1.71-1.43
	c-0.68-0.34-1.43-0.51-2.24-0.51c-0.94,0-1.76,0.23-2.48,0.69c-0.71,0.47-1.26,1.09-1.65,1.87c-0.38,0.78-0.58,1.64-0.58,2.57
	c-0.01,0.43,0.02,0.85,0.1,1.25c0.15,0.73,0.43,1.38,0.85,1.94c0.42,0.57,0.95,1.01,1.59,1.33c0.65,0.32,1.36,0.48,2.16,0.48
	c0.89,0,1.72-0.22,2.47-0.66c0.76-0.44,1.36-1.05,1.81-1.81C35.38,86.61,35.61,85.76,35.62,84.83 M40.99,91.71
	c-0.04,2.58-0.53,4.69-1.48,6.32c-0.95,1.63-2.19,2.8-3.73,3.52c-1.53,0.72-3.23,1.08-5.11,1.08c-1.57,0-3.08-0.25-4.51-0.73
	c-1.44-0.49-2.65-1.21-3.63-2.18c-0.14-0.12-0.22-0.25-0.24-0.39c-0.02-0.1-0.01-0.19,0.03-0.27c0.04-0.09,0.11-0.21,0.22-0.38
	l1.87-2.69c0.19-0.28,0.42-0.42,0.69-0.42c0.22,0,0.43,0.09,0.62,0.27c0.55,0.48,1.19,0.83,1.9,1.07c0.72,0.24,1.57,0.35,2.57,0.35
	c0.82,0,1.62-0.18,2.39-0.53c0.76-0.35,1.39-0.86,1.88-1.51c0.48-0.66,0.73-1.42,0.72-2.29l0.02-0.43
	c-0.74,0.76-1.56,1.34-2.46,1.74c-0.89,0.4-1.85,0.6-2.87,0.6c-1.51,0-2.94-0.34-4.28-1.02c-1.34-0.68-2.48-1.63-3.41-2.86
	c-0.93-1.23-1.55-2.62-1.86-4.18c-0.15-0.74-0.22-1.52-0.21-2.32c0.02-1.88,0.47-3.6,1.33-5.15c0.87-1.55,2.06-2.77,3.58-3.67
	c1.52-0.89,3.22-1.34,5.11-1.34c1.18,0,2.26,0.24,3.23,0.71c0.67,0.32,1.29,0.74,1.84,1.25l0,0c0.12,0.11,0.28,0.18,0.46,0.18
	c0.31,0,0.58-0.22,0.65-0.51l0.16-0.42c0.11-0.37,0.22-0.62,0.33-0.74c0.11-0.13,0.3-0.19,0.58-0.19h3.04
	c0.42,0,0.66,0.16,0.73,0.49c0.01,0.04,0.02,0.13,0.02,0.27L40.99,91.71z"/>
<path class="st1" d="M56.55,48.97c0.02,0.28,0.11,0.56,0.26,0.79l0,0l4.17,5.52c0.23,0.24,0.43,0.43,0.63,0.55
	c0.18,0.11,0.4,0.17,0.71,0.17h26.42c0.32,0,0.53-0.06,0.71-0.17c0.2-0.12,0.39-0.31,0.63-0.55l4.17-5.52l0,0
	c0.16-0.22,0.25-0.5,0.26-0.79c-0.02-0.28-0.11-0.56-0.26-0.79l0,0l-4.17-5.52c-0.23-0.24-0.43-0.43-0.63-0.55
	c-0.18-0.11-0.4-0.17-0.71-0.17H62.32c-0.32,0-0.53,0.06-0.71,0.17c-0.2,0.12-0.39,0.31-0.63,0.55l-4.17,5.52l0,0
	C56.66,48.4,56.57,48.68,56.55,48.97 M72.03,33.21h-7.86c-0.33,0-0.63,0.14-0.85,0.35c-0.22,0.22-0.35,0.52-0.35,0.85v4.03
	c0,0.33,0.14,0.63,0.35,0.85c0.22,0.22,0.52,0.35,0.85,0.35h7.86c0.33,0,0.63-0.14,0.85-0.35c0.19-0.19,0.32-0.45,0.35-0.74V34.3
	c-0.03-0.29-0.16-0.55-0.35-0.74C72.66,33.34,72.36,33.21,72.03,33.21z M87.06,33.21H79.2c-0.33,0-0.63,0.14-0.85,0.35
	C78.13,33.78,78,34.08,78,34.41v4.03c0,0.33,0.14,0.63,0.35,0.85c0.22,0.22,0.52,0.35,0.85,0.35h7.86c0.33,0,0.63-0.14,0.85-0.35
	c0.22-0.22,0.35-0.52,0.35-0.85v-4.03c0-0.33-0.14-0.63-0.35-0.85C87.69,33.34,87.39,33.21,87.06,33.21z M85.64,46.24
	c1.5,0,2.72,1.22,2.72,2.72c0,1.5-1.22,2.72-2.72,2.72c-1.5,0-2.72-1.22-2.72-2.72C82.92,47.46,84.14,46.24,85.64,46.24z
	 M65.48,46.24c1.5,0,2.72,1.22,2.72,2.72c0,1.5-1.22,2.72-2.72,2.72c-1.5,0-2.72-1.22-2.72-2.72
	C62.75,47.46,63.97,46.24,65.48,46.24z M79.74,36.47c0.58,0,1.05,0.47,1.05,1.05c0,0.58-0.47,1.05-1.05,1.05
	c-0.58,0-1.05-0.47-1.05-1.05C78.68,36.94,79.16,36.47,79.74,36.47z M71.38,36.47c0.58,0,1.05,0.47,1.05,1.05
	c0,0.58-0.47,1.05-1.05,1.05c-0.58,0-1.05-0.47-1.05-1.05C70.33,36.94,70.8,36.47,71.38,36.47z M94.74,45.47l1.11,1.42
	c0.44,0.57,0.66,1.28,0.66,2.01c0,0.02,0,0.05,0,0.07c0,0.02,0,0.05,0,0.07c0,0.72-0.22,1.44-0.66,2.01l-1.11,1.42h-0.03l-3.08,4.08
	l-0.02,0.03l-0.03,0.03l-0.06,0.06c-0.64,0.65-1.31,1.33-2.78,1.33h-8.98c-1.07,1.08-2.56,1.76-4.2,1.76c-1.64,0-3.13-0.67-4.2-1.76
	h-9.04c-1.47,0-2.14-0.68-2.78-1.33l-0.05-0.06l-0.03-0.03l-0.02-0.03l-3.08-4.08h-0.03l-1.11-1.42c-0.44-0.57-0.66-1.28-0.66-2.01
	c0-0.02,0-0.05,0-0.07c0-0.02,0-0.05,0-0.07c0-0.72,0.22-1.44,0.66-2.01c1.43-1.83,2.82-3.64,4.23-5.51l0.02-0.03l0.03-0.03
	l0.05-0.06c0.36-0.37,0.74-0.75,1.26-1.01l0-0.62l0-1.17c-3.07,0-9.61-1.97-9.61-6.23v-0.15c0-0.77,0.64-1.39,1.43-1.38l8.21,0.14
	v-0.22v-0.56V24.8c0-0.02,0,0.16,0-0.07c0-0.23,0.35-0.78,0.78-0.78c0.23,0,0.45,0.1,0.59,0.26l0.26,0.31l5.16,6.3
	c1.5,0,3.37,0,5.46,0c0.83,0,2.13,0.13,2.54,1.44c0.45-1.29,1.61-1.44,2.4-1.44c2.05,0,3.97,0,5.44,0l5.16-6.3l0.29-0.34
	c0.13-0.15,0.34-0.23,0.55-0.23c0.39,0,0.71,0.29,0.77,0.66c0,0.02,0.01,0.04,0.01,0.07c0,0.02,0,0.04,0,0.06c0,0.02,0,0.04,0,0.05
	v5.29v0.56v0.22l8.25-0.14c0.79-0.01,1.43,0.61,1.43,1.38v0.15c0,4.26-6.55,6.23-9.61,6.23l0,1.82c0.5,0.26,0.86,0.62,1.21,0.98
	l0.06,0.06l0.03,0.03l0.02,0.03l3.08,4.08H94.74z M98.46,48.97c0,0.02,0,0.04,0,0.07c0,1.15-0.36,2.29-1.07,3.21l-1.7,2.17h-0.01
	l-2.6,3.44l-0.18,0.18c-1.23,1.25-2.34,1.91-4.16,1.91h-8.24c-1.39,1.13-3.13,1.76-4.95,1.76c-1.82,0-3.55-0.62-4.95-1.76h-8.29
	c-1.82,0-2.93-0.66-4.16-1.91l-0.17-0.18l-0.1-0.13l-2.5-3.31h-0.01l-1.7-2.17c-0.71-0.91-1.07-2.05-1.07-3.21c0-0.02,0-0.04,0-0.07
	c0-0.02,0-0.04,0-0.07c0-1.15,0.36-2.29,1.07-3.21c1.42-1.82,2.82-3.64,4.21-5.48l0.09-0.12c-1.09-0.24-2.17-0.58-3.11-0.98
	c-2.89-1.23-5.62-3.46-5.62-6.87v-0.15c0-1.86,1.55-3.35,3.41-3.32l6.24,0.11v-4c0-0.05,0-0.1,0-0.15c0-1.4,1.31-2.72,2.72-2.72
	c0.79,0,1.55,0.34,2.06,0.94l0.27,0.32l4.59,5.61c1.51,0,3.03,0,4.54,0c0.92,0,1.79,0.17,2.53,0.55c0.7-0.38,1.52-0.55,2.41-0.55
	c1.51,0,3.02,0,4.53,0l4.59-5.61l0.31-0.36c0.51-0.59,1.25-0.9,2.02-0.9c1.33,0,2.46,0.96,2.68,2.26c0.02,0.1,0.03,0.2,0.04,0.31
	c0,0.05,0,0.11,0,0.16c0,0.03,0,0.07,0,0.1v4.06l6.28-0.11c1.86-0.03,3.41,1.46,3.41,3.32v0.15c0,0.82-0.17,1.62-0.49,2.37
	c-1.26,2.91-4.92,4.79-8.28,5.49l2.58,3.41h0.01l1.7,2.17c0.71,0.91,1.07,2.05,1.07,3.21C98.46,48.92,98.46,48.94,98.46,48.97z"/>
</svg>
