<svg id="Camada_1" data-name="Camada 1" xmlns="http://www.w3.org/2000/svg" viewBox="0 0 36.69 29.73"><defs><style>.cls-1,.cls-5{fill:#2a0d66;}.cls-2{fill:#73d9cd;}.cls-3{fill:#ee4649;}.cls-4{fill:#fff;}.cls-5{stroke:#2a0d66;stroke-linecap:round;stroke-linejoin:round;stroke-width:2.81px;}.cls-6{fill:#e7dcc0;}</style></defs><path class="cls-1" d="M31.77,14.7V11.06H30.4l0-.43H29V9.24H27.71V8l-.65,0V6.57H23.43V5.28H11.33V6.57H7.69V7.94L7.16,8V9.24H5.87v1.39H4.48l0,.43H3.09V14.7H1.8v9.85H3.09v3.64H4.44l0,1.18H5.87v1.39H7.16V32l.53,0v1.33h3.64v1.33h12.1V33.43h.1v0h3.53V32.07l.65,0V30.76H29V29.37h1.39l.05-1.18h1.34V24.55h1.29V14.7ZM18.39,8h1.4V9.35h1.28v1.28h1.39v1.29H18.39Zm0,5.35h5.36v1.28h1.39v2.68h1.28v1.29h-8ZM4.48,24V22.62H3.17l0-2.67H6.41v2.67h1.5v1.29H9.08V25.3H4.48ZM17,31.93H15.72V30.54H14.43V29.26H13V27.87H11.76V26.69H17Zm0-6.63H10.37V22.62H9.08V21.34H7.69V20H17Zm0-6.74H9.08V17.27h1.29V14.59h1.39V13.31H17Zm0-6.64H13V10.63h1.39V9.35h1.29V8H17Zm6.75,16H22.46v1.39H21.07v1.28H19.79v1.39h-1.4V26.69h5.36Zm4.06-6.53H26.42v1.28H25.14V25.3H18.39V20h9.42Z" transform="translate(-1.66 -5.13)"/><path class="cls-1" d="M23.43,34.87H11.33a.15.15,0,0,1-.15-.15V33.54H7.69a.15.15,0,0,1-.15-.15V32.2H7.15A.15.15,0,0,1,7,32V30.91H5.87a.15.15,0,0,1-.15-.15V29.51H4.48a.15.15,0,0,1-.15-.14l0-1H3.09a.15.15,0,0,1-.15-.15V24.7H1.8a.15.15,0,0,1-.14-.15V14.7a.15.15,0,0,1,.14-.15H2.94V11.06a.15.15,0,0,1,.15-.15H4.32v-.28a.15.15,0,0,1,.15-.14H5.72V9.24a.15.15,0,0,1,.15-.15H7V8a.15.15,0,0,1,.14-.15h.39V6.57a.15.15,0,0,1,.15-.15h3.49V5.28a.15.15,0,0,1,.15-.15h12.1a.15.15,0,0,1,.14.15V6.42h3.49a.15.15,0,0,1,.15.15V7.79l.5,0a.15.15,0,0,1,.14.15V9.09H29a.15.15,0,0,1,.15.15v1.25h1.24a.15.15,0,0,1,.15.14v.28h1.23a.15.15,0,0,1,.15.15v3.49h1.14a.15.15,0,0,1,.15.15v9.85a.15.15,0,0,1-.15.15H31.92v3.49a.15.15,0,0,1-.15.15h-1.2l0,1a.15.15,0,0,1-.15.14H29.14v1.25a.15.15,0,0,1-.15.15H27.85V32a.15.15,0,0,1-.14.15l-.5,0v1.18a.15.15,0,0,1-.15.15H23.63a.09.09,0,0,1-.06,0v1.14A.15.15,0,0,1,23.43,34.87Zm-11.95-.3h11.8V33.43a.15.15,0,0,1,.15-.15h0a.18.18,0,0,1,.1,0h3.39V32.07a.15.15,0,0,1,.14-.15l.5,0V30.76a.15.15,0,0,1,.15-.15h1.13V29.37a.15.15,0,0,1,.15-.15h1.25l0-1a.15.15,0,0,1,.15-.14h1.2V24.55a.15.15,0,0,1,.14-.15h1.14V14.85H31.77a.15.15,0,0,1-.14-.15V11.21H30.4a.15.15,0,0,1-.15-.14v-.29H29a.15.15,0,0,1-.15-.15V9.39H27.71a.15.15,0,0,1-.15-.15V8.1l-.5,0a.15.15,0,0,1-.14-.15V6.72H23.43a.15.15,0,0,1-.15-.15V5.43H11.48V6.57a.15.15,0,0,1-.15.15H7.84V7.94a.15.15,0,0,1-.14.15H7.3V9.24a.15.15,0,0,1-.14.15H6v1.24a.15.15,0,0,1-.15.15H4.62v.29a.15.15,0,0,1-.15.14H3.24V14.7a.15.15,0,0,1-.15.15H2V24.4H3.09a.15.15,0,0,1,.15.15V28h1.2a.14.14,0,0,1,.14.14l0,1H5.87a.15.15,0,0,1,.15.15v1.24H7.16a.15.15,0,0,1,.14.15V31.9h.4a.15.15,0,0,1,.14.15v1.18h3.49a.15.15,0,0,1,.15.15Zm8.31-2.49h-1.4a.14.14,0,0,1-.14-.15V26.69a.15.15,0,0,1,.14-.15h5.36a.15.15,0,0,1,.14.15v1.18a.15.15,0,0,1-.14.15H22.61v1.24a.15.15,0,0,1-.15.15H21.22v1.13a.15.15,0,0,1-.15.15H19.93v1.24A.14.14,0,0,1,19.79,32.08Zm-1.25-.29h1.1V30.54a.15.15,0,0,1,.15-.15h1.13V29.26a.15.15,0,0,1,.15-.15h1.24V27.87a.15.15,0,0,1,.15-.15H23.6v-.88H18.54ZM17,32.08H15.72a.15.15,0,0,1-.15-.15V30.69H14.43a.15.15,0,0,1-.14-.15V29.41H13a.15.15,0,0,1-.15-.15V28H11.76a.15.15,0,0,1-.15-.15V26.69a.15.15,0,0,1,.15-.15H17a.15.15,0,0,1,.15.15v5.24A.15.15,0,0,1,17,32.08Zm-1.13-.29h1V26.84H11.91v.88H13a.15.15,0,0,1,.15.15v1.24h1.24a.15.15,0,0,1,.15.15v1.13h1.14a.15.15,0,0,1,.15.15Zm9.27-6.34H18.39a.15.15,0,0,1-.14-.15V20a.14.14,0,0,1,.14-.15h9.42A.14.14,0,0,1,28,20v1.39a.15.15,0,0,1-.15.15H26.57v1.13a.15.15,0,0,1-.15.15H25.29V25.3A.15.15,0,0,1,25.14,25.45Zm-6.6-.3H25V22.62a.15.15,0,0,1,.15-.15h1.13V21.34a.15.15,0,0,1,.15-.15h1.25v-1.1H18.54Zm-1.54.3H10.37a.15.15,0,0,1-.15-.15V22.77H9.08a.15.15,0,0,1-.15-.15V21.49H7.69a.15.15,0,0,1-.15-.15V20a.15.15,0,0,1,.15-.15H17a.15.15,0,0,1,.15.15V25.3A.15.15,0,0,1,17,25.45Zm-6.48-.3h6.33V20.09h-9v1.1H9.08a.15.15,0,0,1,.15.15v1.13h1.14a.15.15,0,0,1,.15.15Zm-1.44.3H4.48a.15.15,0,0,1-.15-.15V22.77H3.17A.15.15,0,0,1,3,22.62L3,20a.21.21,0,0,1,0-.11.15.15,0,0,1,.11,0H6.41a.15.15,0,0,1,.15.15v2.52H7.91a.15.15,0,0,1,.14.15v1.14h1a.15.15,0,0,1,.15.15V25.3A.15.15,0,0,1,9.08,25.45Zm-4.45-.3h4.3v-1.1h-1a.14.14,0,0,1-.15-.14V22.77H6.41a.15.15,0,0,1-.15-.15V20.09h-3l0,2.38H4.48a.15.15,0,0,1,.15.15ZM26.42,18.7h-8a.14.14,0,0,1-.14-.14V13.31a.15.15,0,0,1,.14-.15h5.36a.15.15,0,0,1,.14.15v1.14h1.25a.15.15,0,0,1,.15.14v2.53h1.13a.15.15,0,0,1,.15.15v1.29A.15.15,0,0,1,26.42,18.7Zm-7.88-.29h7.73v-1H25.14a.15.15,0,0,1-.15-.15V14.74H23.75a.14.14,0,0,1-.15-.15V13.46H18.54ZM17,18.7H9.08a.15.15,0,0,1-.15-.14V17.27a.15.15,0,0,1,.15-.15h1.14V14.59a.15.15,0,0,1,.15-.14h1.24V13.31a.15.15,0,0,1,.15-.15H17a.15.15,0,0,1,.15.15v5.25A.15.15,0,0,1,17,18.7Zm-7.77-.29h7.62V13.46H11.91v1.13a.15.15,0,0,1-.15.15H10.52v2.53a.15.15,0,0,1-.15.15H9.23Zm13.23-6.34H18.39a.15.15,0,0,1-.14-.15V8a.15.15,0,0,1,.14-.15h1.4a.15.15,0,0,1,.14.15V9.2h1.14a.15.15,0,0,1,.15.15v1.14h1.24a.15.15,0,0,1,.15.14v1.29A.15.15,0,0,1,22.46,12.07Zm-3.92-.3h3.77v-1H21.07a.15.15,0,0,1-.15-.15V9.5H19.79a.15.15,0,0,1-.15-.15V8.11h-1.1Zm-1.54.3H13a.15.15,0,0,1-.15-.15V10.63a.15.15,0,0,1,.15-.14h1.25V9.35a.15.15,0,0,1,.14-.15h1.14V8a.15.15,0,0,1,.15-.15H17a.15.15,0,0,1,.15.15v4A.15.15,0,0,1,17,12.07Zm-3.81-.3h3.66V8.11h-1V9.35a.15.15,0,0,1-.15.15H14.58v1.13a.14.14,0,0,1-.15.15H13.19Z" transform="translate(-1.66 -5.13)"/><polygon class="cls-2" points="30.08 14.81 30.03 17.49 28.73 17.49 28.73 18.88 28.73 20.16 27.33 20.16 24.77 20.16 24.77 18.77 25.94 18.77 25.94 17.49 27.44 17.49 27.44 14.81 30.08 14.81"/><polygon class="cls-3" points="15.35 2.82 15.35 6.78 11.39 6.78 11.39 5.5 12.78 5.5 12.78 4.22 14.06 4.22 14.06 2.82 15.35 2.82"/><polygon class="cls-4" points="7.43 18.77 7.43 20.16 4.21 20.16 2.82 20.16 2.82 18.88 2.82 17.49 1.52 17.49 1.47 14.81 4.75 14.81 4.75 17.49 6.25 17.49 6.25 18.77 7.43 18.77"/><polygon class="cls-2" points="30.08 13.42 30.03 10.74 28.73 10.74 28.73 9.35 28.62 8.07 27.33 8.07 24.77 8.07 24.77 9.46 25.94 9.46 25.94 10.74 27.44 10.74 27.44 13.42 30.08 13.42"/><polygon class="cls-4" points="7.43 9.46 7.43 8.07 4.21 8.07 2.82 8.07 2.82 9.35 2.82 10.74 1.52 10.74 1.47 13.42 4.75 13.42 4.75 10.74 6.25 10.74 6.25 9.46 7.43 9.46"/><polygon class="cls-3" points="15.35 21.55 15.35 26.8 14.06 26.8 14.06 25.41 12.78 25.41 12.78 24.12 11.39 24.12 11.39 22.73 10.1 22.73 10.1 21.55 15.35 21.55"/><polygon class="cls-2" points="22.09 21.55 22.09 22.73 20.8 22.73 20.8 24.12 19.41 24.12 19.41 25.41 18.13 25.41 18.13 26.8 16.74 26.8 16.74 21.55 22.09 21.55"/><polygon class="cls-2" points="20.8 5.5 20.8 6.78 16.74 6.78 16.74 2.82 18.13 2.82 18.13 4.22 19.41 4.22 19.41 5.5 20.8 5.5"/><polygon class="cls-2" points="24.77 12.14 24.77 13.42 16.74 13.42 16.74 8.18 22.09 8.18 22.09 9.46 23.48 9.46 23.48 12.14 24.77 12.14"/><polygon class="cls-2" points="26.16 14.81 26.16 16.2 24.77 16.2 24.77 17.49 23.48 17.49 23.48 20.16 16.74 20.16 16.74 14.81 26.16 14.81"/><polygon class="cls-3" points="15.35 14.81 15.35 20.16 8.71 20.16 8.71 17.49 7.43 17.49 7.43 16.2 6.04 16.2 6.04 14.81 15.35 14.81"/><polygon class="cls-3" points="15.35 8.18 15.35 13.42 7.43 13.42 7.43 12.14 8.71 12.14 8.71 9.46 10.1 9.46 10.1 8.18 15.35 8.18"/><path class="cls-4" d="M31.35,21.77v1.17H33v1.29h1.18V27h2.78V25.73l-.86-2.79-1.17-1.39L34,20.91,33,20.16s-.64-.64-.86-.64a3.63,3.63,0,0,0-.85.32l-.54.86Z" transform="translate(-1.66 -5.13)"/><polygon class="cls-1" points="30.97 15.13 30.97 16.42 32.69 16.42 32.69 17.81 33.86 17.81 33.86 19.31 33.86 20.59 35.26 20.59 35.26 21.88 36.54 21.88 36.54 19.2 35.26 19.2 35.26 16.52 33.97 16.52 33.97 15.13 32.58 15.13 32.58 13.74 30.97 13.74 30.97 15.13"/><path class="cls-1" d="M38.2,27.16H36.91a.15.15,0,0,1-.15-.15V25.87H35.52a.15.15,0,0,1-.15-.14V23.09h-1a.15.15,0,0,1-.15-.15V21.7H32.63a.15.15,0,0,1-.15-.15V18.88a.15.15,0,0,1,.15-.15h1.61a.14.14,0,0,1,.14.15v1.24h1.25a.15.15,0,0,1,.14.15v1.24h1.14a.15.15,0,0,1,.15.15v2.53H38.2a.14.14,0,0,1,.14.14V27A.15.15,0,0,1,38.2,27.16Zm-1.14-.3h1V24.48H36.91a.15.15,0,0,1-.15-.15V21.81H35.63a.15.15,0,0,1-.15-.15V20.42H34.24a.15.15,0,0,1-.15-.15V19H32.78V21.4h1.56a.15.15,0,0,1,.15.15V22.8h1a.15.15,0,0,1,.15.14v2.64h1.24a.15.15,0,0,1,.15.15Z" transform="translate(-1.66 -5.13)"/><polygon class="cls-2" points="23.48 21.55 23.48 24.34 22.2 24.34 22.2 25.41 20.06 25.41 20.06 26.8 18.77 26.8 18.77 28.19 20.06 28.19 21.34 28.19 21.34 26.8 23.48 26.8 23.48 25.52 24.66 25.52 24.66 24.34 25.94 24.34 25.94 22.95 27.32 22.95 27.33 22.84 27.33 21.55 23.48 21.55"/><polygon class="cls-4" points="8.39 21.55 8.39 24.34 9.67 24.34 9.67 25.41 11.81 25.41 11.81 26.8 13.1 26.8 13.1 28.19 11.81 28.19 10.53 28.19 10.53 26.8 8.39 26.8 8.39 25.52 7.21 25.52 7.21 24.34 5.93 24.34 5.93 22.95 4.55 22.95 4.54 22.84 4.54 21.55 8.39 21.55"/><polygon class="cls-2" points="23.48 6.78 23.48 5.18 22.2 5.18 22.2 4.11 20.06 4.11 20.06 2.72 18.77 2.72 18.77 1.33 20.06 1.33 21.34 1.33 21.34 2.72 23.48 2.72 23.48 4 24.66 4 24.66 5.39 27.23 5.39 27.23 6.78 23.48 6.78"/><polygon class="cls-4" points="8.39 5.18 9.67 5.18 9.67 4.11 11.81 4.11 11.81 2.72 13.1 2.72 13.1 1.33 11.81 1.33 10.53 1.33 10.53 2.72 8.39 2.72 8.39 4 7.21 4 7.21 5.18 4.21 5.18 4.21 6.57 8.39 6.57 8.39 5.18"/><path class="cls-5" d="M32.74,12.24V10.85H31.35V9.46H24.82v1.39H23.43v1.39H22.14V19h1.29v1.39h1.39v1.4h6.53v-1.4h1.39V19H34V12.24ZM30,20.37H26.21V19H24.82V17.7H23.53V13.52h1.29V12.24h1.39V10.85H30v1.39h1.4v1.28h1.28V17.7H31.35V19H30Z" transform="translate(-1.66 -5.13)"/><polygon class="cls-6" points="30.97 8.39 30.97 12.56 29.69 12.56 29.69 13.85 28.3 13.85 28.3 15.24 24.55 15.24 24.55 13.85 23.16 13.85 23.16 12.56 21.88 12.56 21.88 8.39 23.16 8.39 23.16 7.11 24.55 7.11 24.55 5.71 28.3 5.71 28.3 7.11 29.69 7.11 29.69 8.39 30.97 8.39"/></svg>